<svg
                  width="20"
                  height="20"
                  viewBox="0 0 20 20"
                  fill="none"
                  xmlns="http://www.w3.org/2000/svg"
                >
                  <path
                    d="M9.9987 3.33398C15.0612 3.33398 19.1654 5.57232 19.1654 8.33398V11.6673C19.1654 14.429 15.0612 16.6673 9.9987 16.6673C5.0262 16.6673 0.978698 14.5082 0.836198 11.8148L0.832031 11.6673V8.33398C0.832031 5.57232 4.9362 3.33398 9.9987 3.33398ZM9.9987 13.334C6.8987 13.334 4.15703 12.4948 2.4987 11.209V11.6673C2.4987 13.2357 5.73453 15.0007 9.9987 15.0007C14.1737 15.0007 17.3637 13.309 17.4945 11.7657L17.4987 11.6673L17.4995 11.209C15.8412 12.494 13.0995 13.334 9.9987 13.334ZM9.9987 5.00065C5.73453 5.00065 2.4987 6.76565 2.4987 8.33398C2.4987 9.90232 5.73453 11.6673 9.9987 11.6673C14.2629 11.6673 17.4987 9.90232 17.4987 8.33398C17.4987 6.76565 14.2629 5.00065 9.9987 5.00065Z"
                    fill="#0D0D0D"
                  />
                </svg>